<?xml version="1.0" encoding="utf-8"?>
<!-- Generator: Adobe Illustrator 21.0.0, SVG Export Plug-In . SVG Version: 6.00 Build 0)  -->
<svg version="1.1" id="Capa_1" xmlns="http://www.w3.org/2000/svg" xmlns:xlink="http://www.w3.org/1999/xlink" x="0px" y="0px"
	 viewBox="0 0 263.5 298.1" style="enable-background:new 0 0 263.5 298.1;" xml:space="preserve">
<style type="text/css">
	.st0{fill:#643E00;}
</style>
<g id="XMLID_66_">
	<g id="XMLID_269_">
		<path class="st0" d="M44.3,155.4h0.8c7.7,0,13.9-0.9,18.4-2.7c1,1.5,1.5,3.2,1.5,5c0,1.3-0.5,2.2-1.4,2.7
			c-0.9,0.6-2.9,0.8-5.8,0.8H29.1c-0.4-1-0.6-2-0.6-2.9c0-0.6,0.2-1.1,0.5-1.4s0.9-0.4,1.5-0.4H33c0.1-3,0.2-10.7,0.2-23.3
			c0-6.8-0.1-11.6-0.2-14.6h-3.9c-0.4-1-0.6-2-0.6-2.9c0-0.6,0.2-1.1,0.5-1.4s0.9-0.4,1.5-0.4h18.3c0.4,0.9,0.6,1.7,0.6,2.6
			c0,0.8-0.2,1.4-0.5,1.7c-0.3,0.3-0.8,0.5-1.4,0.5h-3.4c-0.1,3-0.2,7.8-0.2,14.6C44.1,145.8,44.1,153.2,44.3,155.4z"/>
		<path class="st0" d="M82.6,113.9h19c0.4,0.9,0.6,1.7,0.6,2.6c0,0.8-0.2,1.4-0.5,1.7c-0.3,0.3-0.8,0.5-1.5,0.5h-3.4
			c-0.1,3-0.2,7.8-0.1,14.6c0,12.5,0.1,20.2,0.2,23.2h4.6c0.4,0.8,0.6,1.7,0.6,2.6c0,0.8-0.2,1.4-0.5,1.7s-0.8,0.5-1.5,0.5H81
			c-0.4-1-0.6-2-0.6-2.9c0-0.6,0.2-1.1,0.5-1.4c0.3-0.3,0.9-0.4,1.5-0.4h3.2c0.1-3,0.2-10.7,0.2-23.2c0-6.8-0.1-11.6-0.2-14.6H81
			c-0.4-1-0.6-2-0.6-2.9c0-0.6,0.2-1.1,0.5-1.4C81.4,114,81.9,113.9,82.6,113.9z"/>
		<path class="st0" d="M123.2,113.9h14.9c3.1,5.9,6.1,11.4,8.9,16.5c2.9,5.1,5.8,11.3,8.8,18.8v-16c0-6.8-0.1-11.6-0.2-14.6h-3.9
			c-0.4-1-0.6-2-0.6-2.9c0-0.6,0.2-1.1,0.5-1.4s0.9-0.4,1.5-0.4h15.6c0.4,0.9,0.6,1.7,0.6,2.6c0,0.8-0.2,1.4-0.5,1.7
			c-0.3,0.3-0.8,0.5-1.5,0.5h-3c-0.1,3-0.1,7.8-0.1,14.6v23.3c0,2.2-0.3,3.6-0.8,4.2c-0.5,0.6-1.8,0.9-4,0.9c-4.3,0-6.8-0.2-7.4-0.5
			s-2.9-3.8-6.9-10.5s-7.8-14.1-11.2-22.4c0,15.9,0.1,25.3,0.2,28.3h3.6c0.4,0.8,0.6,1.7,0.6,2.6c0,0.8-0.2,1.4-0.5,1.7
			s-0.8,0.5-1.4,0.5H121c-0.4-1-0.6-2-0.6-2.9c0-0.6,0.2-1.1,0.5-1.4c0.3-0.3,0.9-0.4,1.5-0.4h2.9c0.1-3,0.2-10.7,0.2-23.2
			c0-6.8-0.1-11.6-0.2-14.6h-3.6c-0.4-1-0.6-2-0.6-2.9c0-0.6,0.2-1.1,0.5-1.4C122,114,122.6,113.9,123.2,113.9z"/>
		<path class="st0" d="M209,113.2c3.9,0,6,0.1,6.6,0.4c0.5,0.3,2.8,6.3,6.8,18.2s7,20.1,8.8,24.6h3.3c0.4,0.8,0.6,1.7,0.6,2.6
			c0,0.8-0.2,1.4-0.5,1.7s-0.8,0.5-1.5,0.5h-17.7c-0.4-1-0.6-2-0.6-2.9c0-0.6,0.2-1.1,0.5-1.4c0.3-0.3,0.9-0.4,1.5-0.4h1.5
			c-0.3-1.7-1.2-5-2.7-10h-14.7c-1.3,4.9-2.1,8.2-2.4,10h3.3c0.4,0.8,0.6,1.7,0.6,2.6c0,0.8-0.2,1.4-0.5,1.7s-0.8,0.5-1.4,0.5h-15.1
			c-0.4-1-0.6-2-0.6-2.9c0-0.6,0.2-1.1,0.5-1.4c0.3-0.3,0.8-0.4,1.5-0.4h1.9c1.6-4.5,4.1-11.7,7.4-21.7s5.5-16.1,6.6-18.3
			C203.9,114.3,206,113.2,209,113.2z M202.6,140.7h11.5c-3.5-11.7-5.5-17.5-5.9-17.5S205.8,129.1,202.6,140.7z"/>
	</g>
	<g id="XMLID_268_">
		<path d="M28.6,184.9v-14.6h5.3c0.9,0,1.7,0.1,2.3,0.3c0.6,0.2,1.1,0.5,1.5,0.9s0.6,0.8,0.8,1.3c0.1,0.5,0.2,1,0.2,1.6
			c0,0.8-0.2,1.5-0.5,2s-0.8,0.9-1.3,1.2s-1.1,0.5-1.8,0.6c-0.7,0.1-1.3,0.2-2,0.2H30v6.5H28.6z M33.1,177.3c0.6,0,1.2,0,1.7-0.1
			s1-0.2,1.3-0.5c0.4-0.2,0.6-0.5,0.8-0.9s0.3-0.9,0.3-1.5c0-0.9-0.3-1.6-0.9-2.1s-1.6-0.7-2.9-0.7h-3.6v5.8H33.1z"/>
		<path d="M42.7,184.9h-1.2v-10.5h1.2v2l0,0c0.3-0.8,0.8-1.4,1.3-1.8c0.5-0.3,1.2-0.5,2.1-0.5v1.3c-0.7,0-1.3,0.1-1.7,0.3
			c-0.4,0.2-0.8,0.5-1.1,0.9s-0.4,0.9-0.5,1.4s-0.2,1.1-0.2,1.7v5.2H42.7z"/>
		<path d="M52.6,185.2c-0.7,0-1.3-0.1-1.9-0.4c-0.6-0.2-1.1-0.6-1.5-1c-0.4-0.5-0.8-1-1-1.7s-0.4-1.5-0.4-2.4c0-0.8,0.1-1.5,0.3-2.2
			s0.5-1.3,0.9-1.8s0.9-0.9,1.5-1.2s1.3-0.4,2.1-0.4c0.8,0,1.5,0.1,2.2,0.4c0.6,0.3,1.1,0.7,1.5,1.2s0.7,1.1,0.9,1.8
			s0.3,1.4,0.3,2.2s-0.1,1.6-0.3,2.3s-0.6,1.3-1,1.7s-0.9,0.9-1.5,1.1C54,185.1,53.4,185.2,52.6,185.2z M56.2,179.7
			c0-0.6-0.1-1.2-0.2-1.7s-0.3-1-0.6-1.4s-0.7-0.7-1.1-0.9s-1-0.3-1.6-0.3s-1.2,0.1-1.6,0.4c-0.5,0.2-0.8,0.6-1.1,1
			c-0.3,0.4-0.5,0.9-0.6,1.4s-0.2,1.1-0.2,1.7c0,0.6,0.1,1.2,0.2,1.8c0.2,0.5,0.4,1,0.7,1.4s0.7,0.7,1.1,0.9s1,0.3,1.5,0.3
			c0.6,0,1.2-0.1,1.6-0.4c0.5-0.3,0.8-0.6,1.1-1c0.3-0.4,0.5-0.9,0.6-1.4C56.1,180.8,56.2,180.3,56.2,179.7z"/>
		<path d="M68.5,170.3h1.2v14.6h-1.2v-1.8l0,0c-0.2,0.4-0.4,0.7-0.7,0.9s-0.6,0.5-0.9,0.7s-0.7,0.3-1,0.4c-0.4,0.1-0.7,0.1-1,0.1
			c-0.9,0-1.6-0.1-2.2-0.4c-0.6-0.3-1.1-0.7-1.5-1.2s-0.7-1.1-0.8-1.8c-0.2-0.7-0.3-1.4-0.3-2.2c0-0.7,0.1-1.4,0.3-2.1
			s0.5-1.3,0.9-1.8s0.9-0.9,1.5-1.2s1.3-0.5,2.1-0.5c0.7,0,1.5,0.2,2.1,0.5c0.7,0.3,1.2,0.8,1.6,1.5v-5.7H68.5z M68.5,179.6
			c0-0.6-0.1-1.2-0.2-1.7c-0.2-0.5-0.4-1-0.7-1.4c-0.3-0.4-0.7-0.7-1.1-1c-0.4-0.2-0.9-0.4-1.5-0.4s-1.2,0.1-1.6,0.4
			c-0.5,0.2-0.8,0.6-1.1,1c-0.3,0.4-0.5,0.9-0.7,1.5c-0.1,0.6-0.2,1.2-0.2,1.9s0.1,1.2,0.3,1.8c0.2,0.5,0.4,0.9,0.8,1.3
			c0.3,0.4,0.7,0.6,1.1,0.8s0.9,0.3,1.4,0.3c0.6,0,1.1-0.1,1.5-0.3s0.8-0.5,1.1-0.9c0.3-0.4,0.5-0.9,0.7-1.4
			C68.4,180.9,68.5,180.3,68.5,179.6z"/>
		<path d="M80.5,174.4h1.2v10.5h-1.2v-1.5c-0.2,0.2-0.3,0.4-0.5,0.6s-0.4,0.4-0.7,0.6s-0.6,0.3-0.9,0.4c-0.4,0.1-0.8,0.2-1.2,0.2
			c-0.7,0-1.3-0.1-1.8-0.3s-0.9-0.5-1.1-0.8c-0.3-0.4-0.5-0.8-0.6-1.2c-0.1-0.5-0.2-1-0.2-1.5v-6.9h1.2v6.9c0,0.9,0.2,1.6,0.6,2.1
			s1.1,0.7,2.1,0.7c0.5,0,1-0.1,1.3-0.3s0.7-0.5,1-0.8s0.5-0.8,0.6-1.3s0.2-1,0.2-1.6V174.4z"/>
		<path d="M92.7,177.7c-0.2-0.8-0.6-1.4-1.1-1.8c-0.5-0.4-1.2-0.7-2-0.7c-0.6,0-1.2,0.1-1.6,0.4s-0.8,0.6-1.1,1s-0.5,0.9-0.6,1.4
			s-0.2,1.1-0.2,1.6c0,0.6,0.1,1.1,0.2,1.6s0.3,1,0.6,1.4c0.3,0.4,0.7,0.8,1.1,1s1,0.4,1.6,0.4c0.9,0,1.6-0.2,2.2-0.8
			c0.5-0.5,0.9-1.2,1-2.1h1.3c-0.1,0.6-0.3,1.1-0.5,1.6s-0.5,0.9-0.9,1.2s-0.8,0.6-1.3,0.8s-1.1,0.3-1.8,0.3c-0.8,0-1.6-0.1-2.2-0.4
			c-0.6-0.3-1.1-0.7-1.5-1.2s-0.7-1.1-0.9-1.8s-0.3-1.4-0.3-2.2c0-0.7,0.1-1.4,0.3-2.1s0.5-1.3,0.9-1.8s0.9-0.9,1.5-1.2
			s1.3-0.5,2.1-0.5c1.2,0,2.2,0.3,3,0.9c0.8,0.6,1.2,1.5,1.4,2.7h-1.2V177.7z"/>
		<path d="M100.9,185c-0.1,0-0.3,0.1-0.6,0.1c-0.2,0.1-0.5,0.1-0.8,0.1c-0.6,0-1.1-0.2-1.4-0.5s-0.5-0.8-0.5-1.6v-7.7h-1.5v-1h1.5
			v-2.9h1.2v2.9h2v1h-2v7.2c0,0.3,0,0.5,0,0.7s0.1,0.3,0.1,0.5c0.1,0.1,0.2,0.2,0.3,0.3c0.1,0.1,0.3,0.1,0.6,0.1c0.2,0,0.3,0,0.5,0
			s0.3-0.1,0.5-0.1L100.9,185L100.9,185z"/>
		<path d="M107.6,185.2c-0.7,0-1.3-0.1-1.9-0.4c-0.6-0.2-1.1-0.6-1.5-1c-0.4-0.5-0.8-1-1-1.7s-0.4-1.5-0.4-2.4
			c0-0.8,0.1-1.5,0.3-2.2s0.5-1.3,0.9-1.8s0.9-0.9,1.5-1.2s1.3-0.4,2.1-0.4c0.8,0,1.5,0.1,2.2,0.4c0.6,0.3,1.1,0.7,1.5,1.2
			s0.7,1.1,0.9,1.8s0.3,1.4,0.3,2.2s-0.1,1.6-0.3,2.3s-0.6,1.3-1,1.7s-0.9,0.9-1.5,1.1C109,185.1,108.3,185.2,107.6,185.2z
			 M111.2,179.7c0-0.6-0.1-1.2-0.2-1.7s-0.3-1-0.6-1.4s-0.7-0.7-1.1-0.9s-1-0.3-1.6-0.3s-1.2,0.1-1.6,0.4c-0.5,0.2-0.8,0.6-1.1,1
			c-0.3,0.4-0.5,0.9-0.6,1.4s-0.2,1.1-0.2,1.7c0,0.6,0.1,1.2,0.2,1.8c0.2,0.5,0.4,1,0.7,1.4s0.7,0.7,1.1,0.9s1,0.3,1.5,0.3
			c0.6,0,1.2-0.1,1.6-0.4c0.5-0.3,0.8-0.6,1.1-1c0.3-0.4,0.5-0.9,0.6-1.4C111.1,180.8,111.2,180.3,111.2,179.7z"/>
		<path d="M116,181.7c0.2,0.9,0.5,1.5,1,1.9s1.2,0.6,2.1,0.6c0.4,0,0.8-0.1,1.2-0.2c0.3-0.1,0.6-0.3,0.8-0.4
			c0.2-0.2,0.4-0.4,0.5-0.6s0.2-0.5,0.2-0.7c0-0.5-0.2-0.9-0.5-1.1c-0.3-0.3-0.7-0.4-1.2-0.6c-0.5-0.1-1-0.3-1.6-0.4
			s-1.1-0.3-1.6-0.5s-0.9-0.5-1.2-0.9s-0.5-0.9-0.5-1.6c0-0.9,0.3-1.6,1-2.2c0.6-0.6,1.6-0.8,2.7-0.8s2.1,0.3,2.8,0.8
			c0.7,0.5,1.1,1.4,1.3,2.5h-1.2c-0.1-0.8-0.4-1.4-0.9-1.7s-1.1-0.5-1.9-0.5s-1.4,0.2-1.8,0.5s-0.6,0.8-0.6,1.3s0.2,0.8,0.5,1.1
			c0.3,0.2,0.7,0.5,1.2,0.6c0.5,0.2,1,0.3,1.6,0.4c0.6,0.1,1.1,0.3,1.6,0.5s0.9,0.5,1.2,0.9c0.3,0.4,0.5,0.9,0.5,1.6
			c0,0.5-0.1,0.9-0.3,1.3c-0.2,0.4-0.5,0.7-0.9,1s-0.8,0.5-1.4,0.6c-0.5,0.1-1.1,0.2-1.7,0.2s-1.2-0.1-1.7-0.3s-0.9-0.4-1.2-0.8
			c-0.3-0.3-0.6-0.7-0.8-1.1c-0.2-0.4-0.3-0.9-0.3-1.4L116,181.7L116,181.7z"/>
		<path d="M133,181.7c0.2,0.9,0.5,1.5,1,1.9s1.2,0.6,2.1,0.6c0.4,0,0.8-0.1,1.2-0.2c0.3-0.1,0.6-0.3,0.8-0.4
			c0.2-0.2,0.4-0.4,0.5-0.6s0.2-0.5,0.2-0.7c0-0.5-0.2-0.9-0.5-1.1c-0.3-0.3-0.7-0.4-1.2-0.6c-0.5-0.1-1-0.3-1.6-0.4
			s-1.1-0.3-1.6-0.5s-0.9-0.5-1.2-0.9s-0.5-0.9-0.5-1.6c0-0.9,0.3-1.6,1-2.2c0.6-0.6,1.6-0.8,2.7-0.8s2.1,0.3,2.8,0.8
			c0.7,0.5,1.1,1.4,1.3,2.5h-1.2c-0.1-0.8-0.4-1.4-0.9-1.7s-1.1-0.5-1.9-0.5s-1.4,0.2-1.8,0.5s-0.6,0.8-0.6,1.3s0.2,0.8,0.5,1.1
			c0.3,0.2,0.7,0.5,1.2,0.6c0.5,0.2,1,0.3,1.6,0.4c0.6,0.1,1.1,0.3,1.6,0.5s0.9,0.5,1.2,0.9c0.3,0.4,0.5,0.9,0.5,1.6
			c0,0.5-0.1,0.9-0.3,1.3c-0.2,0.4-0.5,0.7-0.9,1s-0.8,0.5-1.4,0.6c-0.5,0.1-1.1,0.2-1.7,0.2s-1.2-0.1-1.7-0.3s-0.9-0.4-1.2-0.8
			c-0.3-0.3-0.6-0.7-0.8-1.1c-0.2-0.4-0.3-0.9-0.3-1.4L133,181.7L133,181.7z"/>
		<path d="M147.9,178.8c0.2,0,0.5-0.1,0.8-0.1c0.3-0.1,0.6-0.1,0.8-0.2s0.3-0.3,0.4-0.5c0-0.2,0.1-0.4,0.1-0.6
			c0-0.6-0.2-1.1-0.6-1.5s-1.1-0.6-2-0.6c-0.4,0-0.8,0-1.2,0.1c-0.4,0.1-0.7,0.2-0.9,0.4s-0.5,0.4-0.6,0.7c-0.2,0.3-0.3,0.7-0.3,1.1
			h-1.2c0-0.6,0.2-1.2,0.4-1.6c0.2-0.4,0.6-0.8,0.9-1.1c0.4-0.3,0.8-0.5,1.3-0.6s1-0.2,1.6-0.2c0.5,0,1,0.1,1.5,0.2s0.9,0.3,1.2,0.5
			c0.3,0.3,0.6,0.6,0.8,1c0.2,0.4,0.3,0.9,0.3,1.5v5.7c0,0.5,0.1,0.8,0.3,0.9c0.2,0.1,0.5,0.1,1-0.1v1c-0.1,0-0.2,0.1-0.4,0.1
			s-0.4,0.1-0.5,0.1c-0.2,0-0.4,0-0.5-0.1c-0.2,0-0.4-0.1-0.5-0.2s-0.2-0.2-0.3-0.4c-0.1-0.1-0.1-0.3-0.2-0.5c0-0.2,0-0.3,0-0.5
			c-0.5,0.6-1.1,1-1.8,1.3c-0.7,0.3-1.4,0.4-2.2,0.4c-0.5,0-0.9-0.1-1.3-0.2c-0.4-0.1-0.8-0.3-1.1-0.6c-0.3-0.3-0.6-0.6-0.8-0.9
			s-0.3-0.8-0.3-1.3c0-1.8,1.2-2.8,3.7-3.2L147.9,178.8z M150,179.4c-0.5,0.2-1,0.4-1.6,0.4c-0.5,0.1-1.1,0.1-1.6,0.2
			c-0.9,0.1-1.7,0.3-2.2,0.6c-0.5,0.4-0.8,0.9-0.8,1.6c0,0.3,0.1,0.6,0.2,0.8s0.3,0.4,0.5,0.6c0.2,0.2,0.5,0.3,0.7,0.3
			s0.6,0.1,0.8,0.1c0.5,0,1-0.1,1.4-0.2s0.9-0.3,1.2-0.6c0.4-0.2,0.6-0.6,0.9-1c0.2-0.4,0.3-0.8,0.3-1.4v-1.4H150z"/>
		<path d="M155.2,184.9v-14.6h1.2v14.6H155.2z"/>
		<path d="M167.2,174.4h1.2v10.5h-1.2v-1.5c-0.2,0.2-0.3,0.4-0.5,0.6s-0.4,0.4-0.7,0.6s-0.6,0.3-0.9,0.4c-0.4,0.1-0.8,0.2-1.2,0.2
			c-0.7,0-1.3-0.1-1.8-0.3s-0.9-0.5-1.1-0.8c-0.3-0.4-0.5-0.8-0.6-1.2c-0.1-0.5-0.2-1-0.2-1.5v-6.9h1.2v6.9c0,0.9,0.2,1.6,0.6,2.1
			s1.1,0.7,2.1,0.7c0.5,0,1-0.1,1.3-0.3s0.7-0.5,1-0.8s0.5-0.8,0.6-1.3s0.2-1,0.2-1.6V174.4z"/>
		<path d="M180.1,170.3h1.2v14.6h-1.2v-1.8l0,0c-0.2,0.4-0.4,0.7-0.7,0.9s-0.6,0.5-0.9,0.7s-0.7,0.3-1,0.4c-0.4,0.1-0.7,0.1-1,0.1
			c-0.9,0-1.6-0.1-2.2-0.4c-0.6-0.3-1.1-0.7-1.5-1.2s-0.7-1.1-0.8-1.8c-0.2-0.7-0.3-1.4-0.3-2.2c0-0.7,0.1-1.4,0.3-2.1
			s0.5-1.3,0.9-1.8s0.9-0.9,1.5-1.2s1.3-0.5,2.1-0.5c0.7,0,1.5,0.2,2.1,0.5c0.7,0.3,1.2,0.8,1.6,1.5v-5.7H180.1z M180.1,179.6
			c0-0.6-0.1-1.2-0.2-1.7c-0.2-0.5-0.4-1-0.7-1.4c-0.3-0.4-0.7-0.7-1.1-1c-0.4-0.2-0.9-0.4-1.5-0.4s-1.2,0.1-1.6,0.4
			c-0.5,0.2-0.8,0.6-1.1,1c-0.3,0.4-0.5,0.9-0.7,1.5c-0.1,0.6-0.2,1.2-0.2,1.9s0.1,1.2,0.3,1.8c0.2,0.5,0.4,0.9,0.8,1.3
			c0.3,0.4,0.7,0.6,1.1,0.8s0.9,0.3,1.4,0.3c0.6,0,1.1-0.1,1.5-0.3s0.8-0.5,1.1-0.9c0.3-0.4,0.5-0.9,0.7-1.4
			C180,180.9,180.1,180.3,180.1,179.6z"/>
		<path d="M189.9,178.8c0.2,0,0.5-0.1,0.8-0.1c0.3-0.1,0.6-0.1,0.8-0.2s0.3-0.3,0.4-0.5c0-0.2,0.1-0.4,0.1-0.6
			c0-0.6-0.2-1.1-0.6-1.5s-1.1-0.6-2-0.6c-0.4,0-0.8,0-1.2,0.1c-0.4,0.1-0.7,0.2-0.9,0.4s-0.5,0.4-0.6,0.7c-0.2,0.3-0.3,0.7-0.3,1.1
			h-1.2c0-0.6,0.2-1.2,0.4-1.6c0.2-0.4,0.6-0.8,0.9-1.1c0.4-0.3,0.8-0.5,1.3-0.6s1-0.2,1.6-0.2c0.5,0,1,0.1,1.5,0.2s0.9,0.3,1.2,0.5
			c0.3,0.3,0.6,0.6,0.8,1c0.2,0.4,0.3,0.9,0.3,1.5v5.7c0,0.5,0.1,0.8,0.3,0.9c0.2,0.1,0.5,0.1,1-0.1v1c-0.1,0-0.2,0.1-0.4,0.1
			s-0.4,0.1-0.5,0.1c-0.2,0-0.4,0-0.5-0.1c-0.2,0-0.4-0.1-0.5-0.2s-0.2-0.2-0.3-0.4c-0.1-0.1-0.1-0.3-0.2-0.5c0-0.2,0-0.3,0-0.5
			c-0.5,0.6-1.1,1-1.8,1.3c-0.7,0.3-1.4,0.4-2.2,0.4c-0.5,0-0.9-0.1-1.3-0.2c-0.4-0.1-0.8-0.3-1.1-0.6c-0.3-0.3-0.6-0.6-0.8-0.9
			s-0.3-0.8-0.3-1.3c0-1.8,1.2-2.8,3.7-3.2L189.9,178.8z M191.9,179.4c-0.5,0.2-1,0.4-1.6,0.4c-0.5,0.1-1.1,0.1-1.6,0.2
			c-0.9,0.1-1.7,0.3-2.2,0.6c-0.5,0.4-0.8,0.9-0.8,1.6c0,0.3,0.1,0.6,0.2,0.8s0.3,0.4,0.5,0.6c0.2,0.2,0.5,0.3,0.7,0.3
			s0.6,0.1,0.8,0.1c0.5,0,1-0.1,1.4-0.2s0.9-0.3,1.2-0.6c0.4-0.2,0.6-0.6,0.9-1c0.2-0.4,0.3-0.8,0.3-1.4v-1.4H191.9z"/>
		<path d="M198.3,184.9h-1.2v-14.6h1.2v5.8c0.4-0.6,0.9-1.1,1.6-1.5c0.7-0.3,1.4-0.5,2.1-0.5c0.8,0,1.5,0.2,2.1,0.5s1.1,0.7,1.5,1.2
			s0.7,1.1,0.9,1.8s0.3,1.4,0.3,2.1c0,0.8-0.1,1.5-0.3,2.2c-0.2,0.7-0.5,1.3-0.8,1.8s-0.9,0.9-1.5,1.2s-1.3,0.4-2.2,0.4
			c-0.3,0-0.7,0-1-0.1c-0.4-0.1-0.7-0.2-1-0.4s-0.6-0.4-0.9-0.7s-0.5-0.6-0.7-0.9l0,0v1.7H198.3z M198.3,179.6
			c0,0.6,0.1,1.2,0.2,1.8c0.2,0.5,0.4,1,0.7,1.4c0.3,0.4,0.7,0.7,1.1,0.9s1,0.3,1.5,0.3s1-0.1,1.4-0.3s0.8-0.5,1.1-0.8
			c0.3-0.4,0.6-0.8,0.8-1.3s0.3-1.1,0.3-1.8s0-1.3-0.2-1.9c-0.1-0.6-0.4-1.1-0.6-1.5c-0.3-0.4-0.7-0.8-1.1-1c-0.5-0.3-1-0.4-1.6-0.4
			s-1.1,0.1-1.5,0.4c-0.4,0.2-0.8,0.6-1.1,1s-0.5,0.9-0.7,1.4C198.4,178.5,198.3,179,198.3,179.6z"/>
		<path d="M210.1,184.9v-14.6h1.2v14.6H210.1z"/>
		<path d="M215.8,180c0,0.6,0.1,1.1,0.2,1.6s0.4,0.9,0.7,1.3c0.3,0.4,0.7,0.7,1.1,0.9c0.4,0.2,1,0.3,1.5,0.3c0.8,0,1.5-0.2,2.1-0.6
			s0.9-1,1.1-1.8h1.4c-0.1,0.5-0.3,1-0.6,1.4c-0.2,0.4-0.5,0.8-0.9,1.1s-0.8,0.6-1.3,0.7c-0.5,0.2-1.1,0.3-1.7,0.3
			c-0.8,0-1.6-0.1-2.2-0.4c-0.6-0.3-1.1-0.7-1.5-1.2s-0.7-1.1-0.9-1.7c-0.2-0.7-0.3-1.4-0.3-2.2s0.1-1.5,0.3-2.2
			c0.2-0.7,0.5-1.3,1-1.8c0.4-0.5,0.9-0.9,1.5-1.2s1.3-0.4,2-0.4c1.4,0,2.6,0.5,3.4,1.5c0.8,1,1.2,2.4,1.2,4.3L215.8,180L215.8,180z
			 M222.7,179c0-0.5-0.1-1-0.2-1.5c-0.1-0.5-0.4-0.8-0.6-1.2c-0.3-0.3-0.6-0.6-1-0.8s-0.9-0.3-1.4-0.3s-1,0.1-1.4,0.3
			s-0.8,0.5-1.1,0.8s-0.5,0.7-0.7,1.2c-0.2,0.4-0.3,0.9-0.3,1.4h6.7V179z"/>
		<path d="M227.7,181.7c0.2,0.9,0.5,1.5,1,1.9s1.2,0.6,2.1,0.6c0.4,0,0.8-0.1,1.2-0.2c0.3-0.1,0.6-0.3,0.8-0.4
			c0.2-0.2,0.4-0.4,0.5-0.6s0.2-0.5,0.2-0.7c0-0.5-0.2-0.9-0.5-1.1c-0.3-0.3-0.7-0.4-1.2-0.6c-0.5-0.1-1-0.3-1.6-0.4
			s-1.1-0.3-1.6-0.5s-0.9-0.5-1.2-0.9s-0.5-0.9-0.5-1.6c0-0.9,0.3-1.6,1-2.2c0.6-0.6,1.6-0.8,2.7-0.8c1.1,0,2.1,0.3,2.8,0.8
			s1.1,1.4,1.3,2.5h-1.2c-0.1-0.8-0.4-1.4-0.9-1.7s-1.1-0.5-1.9-0.5s-1.4,0.2-1.8,0.5c-0.4,0.3-0.6,0.8-0.6,1.3s0.2,0.8,0.5,1.1
			c0.3,0.2,0.7,0.5,1.2,0.6c0.5,0.2,1,0.3,1.6,0.4c0.6,0.1,1.1,0.3,1.6,0.5s0.9,0.5,1.2,0.9s0.5,0.9,0.5,1.6c0,0.5-0.1,0.9-0.3,1.3
			c-0.2,0.4-0.5,0.7-0.9,1s-0.8,0.5-1.4,0.6c-0.5,0.1-1.1,0.2-1.7,0.2c-0.6,0-1.2-0.1-1.7-0.3s-0.9-0.4-1.2-0.8
			c-0.3-0.3-0.6-0.7-0.8-1.1c-0.2-0.4-0.3-0.9-0.3-1.4L227.7,181.7L227.7,181.7z"/>
	</g>
</g>
</svg>
